<svg viewBox="0 0 200 200" xmlns="http://www.w3.org/2000/svg">
  <defs>
    <!-- Blue to cyan gradient for funnel -->
    <linearGradient id="blueToTealGradient" x1="0%" y1="0%" x2="100%" y2="0%">
      <stop offset="0%" stop-color="#3b82f6" />
      <stop offset="50%" stop-color="#60a5fa" />
      <stop offset="100%" stop-color="#22d3ee" />
    </linearGradient>

    <!-- Glassmorphism gradients -->
    <linearGradient id="glassFrontGradient" x1="0%" y1="0%" x2="100%" y2="100%">
      <stop offset="0%" stop-color="rgba(59, 130, 246, 0.3)" />
      <stop offset="50%" stop-color="rgba(96, 165, 250, 0.2)" />
      <stop offset="100%" stop-color="rgba(34, 211, 238, 0.3)" />
    </linearGradient>

    <linearGradient id="glassSideGradient" x1="0%" y1="0%" x2="100%" y2="100%">
      <stop offset="0%" stop-color="rgba(59, 130, 246, 0.2)" />
      <stop offset="100%" stop-color="rgba(34, 211, 238, 0.1)" />
    </linearGradient>

    <linearGradient id="glassTopGradient" x1="0%" y1="0%" x2="100%" y2="100%">
      <stop offset="0%" stop-color="rgba(96, 165, 250, 0.4)" />
      <stop offset="100%" stop-color="rgba(59, 130, 246, 0.2)" />
    </linearGradient>

    <!-- Blur filter for glassmorphism -->
    <filter id="blur" x="-50%" y="-50%" width="200%" height="200%">
      <feGaussianBlur in="SourceGraphic" stdDeviation="0.8"/>
    </filter>

    <!-- Glow filter -->
    <filter id="glow" x="-50%" y="-50%" width="200%" height="200%">
      <feGaussianBlur stdDeviation="3" result="coloredBlur"/>
      <feMerge> 
        <feMergeNode in="coloredBlur"/>
        <feMergeNode in="SourceGraphic"/>
      </feMerge>
    </filter>
  </defs>

  <!-- Glassmorphism base layer -->
  <g filter="url(#blur)">
    <!-- Top section of funnel - 3D trapezoid (scaled up) -->
    <!-- Front face -->
    <path d="M 20 20 L 180 20 L 150 90 L 50 90 Z" fill="url(#glassFrontGradient)" stroke="rgba(255, 255, 255, 0.2)" stroke-width="0.8" />
    
    <!-- Right side face -->
    <path d="M 180 20 L 200 40 L 170 110 L 150 90 Z" fill="url(#glassSideGradient)" stroke="rgba(255, 255, 255, 0.1)" stroke-width="0.8" />
    
    <!-- Top face -->
    <path d="M 20 20 L 40 0 L 200 0 L 180 20 Z" fill="url(#glassTopGradient)" stroke="rgba(255, 255, 255, 0.3)" stroke-width="0.8" />

    <!-- Middle section of funnel - 3D trapezoid (scaled up) -->
    <!-- Front face -->
    <path d="M 50 90 L 150 90 L 130 140 L 70 140 Z" fill="url(#glassFrontGradient)" stroke="rgba(255, 255, 255, 0.2)" stroke-width="0.8" />
    
    <!-- Right side face -->
    <path d="M 150 90 L 170 110 L 150 160 L 130 140 Z" fill="url(#glassSideGradient)" stroke="rgba(255, 255, 255, 0.1)" stroke-width="0.8" />

    <!-- Bottom section of funnel - 3D triangle (scaled up) -->
    <!-- Front face -->
    <path d="M 70 140 L 130 140 L 100 200 Z" fill="url(#glassFrontGradient)" stroke="rgba(255, 255, 255, 0.2)" stroke-width="0.8" />
    
    <!-- Right side face -->
    <path d="M 130 140 L 150 160 L 120 200 L 100 200 Z" fill="url(#glassSideGradient)" stroke="rgba(255, 255, 255, 0.1)" stroke-width="0.8" />
  </g>

  <!-- Glass highlights and reflections (scaled up) -->
  <g filter="url(#glow)">
    <!-- Main highlights -->
    <path d="M 30 30 L 50 10 L 60 15 L 40 35 Z" fill="rgba(255, 255, 255, 0.6)" />
    <path d="M 60 100 L 70 90 L 80 95 L 70 105 Z" fill="rgba(255, 255, 255, 0.4)" />
    <path d="M 80 150 L 90 140 L 95 145 L 85 155 Z" fill="rgba(255, 255, 255, 0.4)" />

    <!-- Glass edge highlights -->
    <line x1="20" y1="20" x2="180" y2="20" stroke="rgba(255, 255, 255, 0.5)" stroke-width="1.5" />
    <line x1="50" y1="90" x2="150" y2="90" stroke="rgba(255, 255, 255, 0.4)" stroke-width="1.2" />
    <line x1="70" y1="140" x2="130" y2="140" stroke="rgba(255, 255, 255, 0.3)" stroke-width="1" />

    <!-- Inner glow effect (scaled up) -->
    <path d="M 40 40 L 160 40 L 140 110 L 60 110 Z" fill="none" stroke="url(#blueToTealGradient)" stroke-width="0.8" opacity="0.6" />
    <path d="M 60 110 L 140 110 L 120 160 L 80 160 Z" fill="none" stroke="url(#blueToTealGradient)" stroke-width="0.6" opacity="0.5" />
    <path d="M 80 160 L 120 160 L 100 190 Z" fill="none" stroke="url(#blueToTealGradient)" stroke-width="0.5" opacity="0.4" />
  </g>

  <!-- Subtle outer glow (scaled up) -->
  <g opacity="0.3">
    <path d="M 10 10 L 190 10 L 160 120 L 40 120 Z" fill="none" stroke="rgba(34, 211, 238, 0.3)" stroke-width="3" filter="url(#blur)" />
    <path d="M 40 120 L 160 120 L 110 200 Z" fill="none" stroke="rgba(34, 211, 238, 0.2)" stroke-width="2.5" filter="url(#blur)" />
  </g>
</svg>