<svg viewBox="0 0 200 200" xmlns="http://www.w3.org/2000/svg">
  <defs>
    <!-- Custom background gradient -->
    <linearGradient id="backgroundGradient" x1="0%" y1="0%" x2="100%" y2="100%">
      <stop offset="0%" stop-color="#0a0f1a" />
      <stop offset="50%" stop-color="#141b31" />
      <stop offset="100%" stop-color="#1a2035" />
    </linearGradient>

    <!-- Blue to cyan gradient for funnel -->
    <linearGradient id="blueToTealGradient" x1="0%" y1="0%" x2="100%" y2="0%">
      <stop offset="0%" stop-color="#3b82f6" />
      <stop offset="50%" stop-color="#60a5fa" />
      <stop offset="100%" stop-color="#22d3ee" />
    </linearGradient>

    <!-- Glassmorphism gradients -->
    <linearGradient id="glassFrontGradient" x1="0%" y1="0%" x2="100%" y2="100%">
      <stop offset="0%" stop-color="rgba(59, 130, 246, 0.3)" />
      <stop offset="50%" stop-color="rgba(96, 165, 250, 0.2)" />
      <stop offset="100%" stop-color="rgba(34, 211, 238, 0.3)" />
    </linearGradient>

    <linearGradient id="glassSideGradient" x1="0%" y1="0%" x2="100%" y2="100%">
      <stop offset="0%" stop-color="rgba(59, 130, 246, 0.2)" />
      <stop offset="100%" stop-color="rgba(34, 211, 238, 0.1)" />
    </linearGradient>

    <linearGradient id="glassTopGradient" x1="0%" y1="0%" x2="100%" y2="100%">
      <stop offset="0%" stop-color="rgba(96, 165, 250, 0.4)" />
      <stop offset="100%" stop-color="rgba(59, 130, 246, 0.2)" />
    </linearGradient>

    <!-- Blur filter for glassmorphism -->
    <filter id="blur" x="-50%" y="-50%" width="200%" height="200%">
      <feGaussianBlur in="SourceGraphic" stdDeviation="0.5"/>
    </filter>

    <!-- Glow filter -->
    <filter id="glow" x="-50%" y="-50%" width="200%" height="200%">
      <feGaussianBlur stdDeviation="2" result="coloredBlur"/>
      <feMerge> 
        <feMergeNode in="coloredBlur"/>
        <feMergeNode in="SourceGraphic"/>
      </feMerge>
    </filter>
  </defs>

  <!-- Rounded square background with custom gradient -->
  <rect x="0" y="0" width="200" height="200" rx="40" ry="40" fill="url(#backgroundGradient)" />

  <!-- Glassmorphism base layer -->
  <g filter="url(#blur)">
    <!-- Top section of funnel - 3D trapezoid -->
    <!-- Front face -->
    <path d="M 65 75 L 135 75 L 120 110 L 80 110 Z" fill="url(#glassFrontGradient)" stroke="rgba(255, 255, 255, 0.2)" stroke-width="0.5" />
    
    <!-- Right side face -->
    <path d="M 135 75 L 150 85 L 135 120 L 120 110 Z" fill="url(#glassSideGradient)" stroke="rgba(255, 255, 255, 0.1)" stroke-width="0.5" />
    
    <!-- Top face -->
    <path d="M 65 75 L 80 65 L 150 65 L 135 75 Z" fill="url(#glassTopGradient)" stroke="rgba(255, 255, 255, 0.3)" stroke-width="0.5" />

    <!-- Middle section of funnel - 3D trapezoid -->
    <!-- Front face -->
    <path d="M 80 110 L 120 110 L 110 135 L 90 135 Z" fill="url(#glassFrontGradient)" stroke="rgba(255, 255, 255, 0.2)" stroke-width="0.5" />
    
    <!-- Right side face -->
    <path d="M 120 110 L 135 120 L 125 145 L 110 135 Z" fill="url(#glassSideGradient)" stroke="rgba(255, 255, 255, 0.1)" stroke-width="0.5" />

    <!-- Bottom section of funnel - 3D triangle -->
    <!-- Front face -->
    <path d="M 90 135 L 110 135 L 100 155 Z" fill="url(#glassFrontGradient)" stroke="rgba(255, 255, 255, 0.2)" stroke-width="0.5" />
    
    <!-- Right side face -->
    <path d="M 110 135 L 125 145 L 115 165 L 100 155 Z" fill="url(#glassSideGradient)" stroke="rgba(255, 255, 255, 0.1)" stroke-width="0.5" />
  </g>

  <!-- Glass highlights and reflections -->
  <g filter="url(#glow)">
    <!-- Main highlights -->
    <path d="M 70 80 L 80 70 L 85 72 L 75 82 Z" fill="rgba(255, 255, 255, 0.6)" />
    <path d="M 85 115 L 90 110 L 95 112 L 90 117 Z" fill="rgba(255, 255, 255, 0.4)" />
    <path d="M 95 140 L 100 135 L 103 137 L 98 142 Z" fill="rgba(255, 255, 255, 0.4)" />

    <!-- Glass edge highlights -->
    <line x1="65" y1="75" x2="135" y2="75" stroke="rgba(255, 255, 255, 0.5)" stroke-width="1" />
    <line x1="80" y1="110" x2="120" y2="110" stroke="rgba(255, 255, 255, 0.4)" stroke-width="0.8" />
    <line x1="90" y1="135" x2="110" y2="135" stroke="rgba(255, 255, 255, 0.3)" stroke-width="0.6" />

    <!-- Inner glow effect -->
    <path d="M 75 85 L 125 85 L 115 115 L 85 115 Z" fill="none" stroke="url(#blueToTealGradient)" stroke-width="0.5" opacity="0.6" />
    <path d="M 85 115 L 115 115 L 105 140 L 95 140 Z" fill="none" stroke="url(#blueToTealGradient)" stroke-width="0.4" opacity="0.5" />
    <path d="M 95 140 L 105 140 L 100 150 Z" fill="none" stroke="url(#blueToTealGradient)" stroke-width="0.3" opacity="0.4" />
  </g>

  <!-- Subtle outer glow -->
  <g opacity="0.3">
    <path d="M 60 70 L 140 70 L 125 115 L 75 115 Z" fill="none" stroke="rgba(34, 211, 238, 0.3)" stroke-width="2" filter="url(#blur)" />
    <path d="M 75 115 L 125 115 L 105 160 Z" fill="none" stroke="rgba(34, 211, 238, 0.2)" stroke-width="1.5" filter="url(#blur)" />
  </g>
</svg>