<?xml version="1.0" encoding="UTF-8"?>
<svg id="Layer_2" data-name="Layer 2" xmlns="http://www.w3.org/2000/svg" xmlns:xlink="http://www.w3.org/1999/xlink" viewBox="0 0 150 150">
  <defs>
    <style>
      .cls-1 {
        fill: url(#radial-gradient);
      }

      .cls-2 {
        fill: #fff;
      }

      .cls-3 {
        fill: none;
        stroke: #fff;
        stroke-linecap: round;
        stroke-miterlimit: 10;
        stroke-width: 13px;
      }
    </style>
    <radialGradient id="radial-gradient" cx="75" cy="75" fx="75" fy="75" r="75" gradientUnits="userSpaceOnUse">
      <stop offset="0" stop-color="#7075f1"/>
      <stop offset="1" stop-color="#544de7"/>
    </radialGradient>
  </defs>
  <g id="Layer_1-2" data-name="Layer 1">
    <rect class="cls-1" width="150" height="150" rx="42.07" ry="42.07"/>
    <path class="cls-2" d="M76.27,15.74c-33.66,0-60.95,27.29-60.95,60.95s27.29,60.96,60.95,60.96,60.96-27.29,60.96-60.96S109.94,15.74,76.27,15.74ZM76.27,125.97c-27.21,0-49.28-22.06-49.28-49.28s22.07-49.28,49.28-49.28,49.28,22.07,49.28,49.28-22.06,49.28-49.28,49.28Z"/>
    <circle class="cls-2" cx="76.27" cy="76.69" r="10.73"/>
    <path class="cls-3" d="M97.86,98.28c-5.53,5.53-13.16,8.94-21.59,8.94-16.86,0-30.53-13.67-30.53-30.53s13.67-30.53,30.53-30.53"/>
  </g>
</svg>