<svg width="120" height="120" viewBox="0 0 120 120" xmlns="http://www.w3.org/2000/svg">
  <defs>
    <!-- Purple gradient for the S icon -->
    <linearGradient id="sGradient" x1="0%" y1="0%" x2="100%" y2="100%">
      <stop offset="0%" style="stop-color:#4F46E5;stop-opacity:1" />
      <stop offset="50%" style="stop-color:#7C3AED;stop-opacity:1" />
      <stop offset="100%" style="stop-color:#3B82F6;stop-opacity:1" />
    </linearGradient>
  </defs>
  
  <!-- Rounded rectangle background (light yellowish beige) -->
  <rect width="120" height="120" rx="16" ry="16" fill="#F5F5DC" stroke="#E5E5E5" stroke-width="1"/>
  
  <!-- Purple "S" icon centered -->
  <g transform="translate(10, -5) scale(0.8, 0.8)">
    <path d="M85 25 C95 15, 105 20, 100 35 C95 50, 75 55, 65 65 C55 75, 45 80, 50 95 C55 110, 75 105, 85 95 C90 90, 85 85, 80 90 C75 95, 65 98, 60 90 C55 82, 65 78, 70 82 C72 84, 70 86, 68 84 M25 115 C15 125, 5 120, 10 105 C15 90, 35 85, 45 75 C55 65, 65 60, 60 45 C55 30, 35 35, 25 45 C20 50, 25 55, 30 50 C35 45, 45 42, 50 50 C55 58, 45 62, 40 58 C38 56, 40 54, 42 56" 
          fill="url(#sGradient)" 
          stroke="#1E293B" 
          stroke-width="2" />
  </g>
</svg>
